<svg width="80" height="56" viewBox="0 0 80 56" fill="none" xmlns="http://www.w3.org/2000/svg">
<path fill-rule="evenodd" clip-rule="evenodd" d="M2.76562 27.9167C2.76562 12.5202 15.1848 0 30.4517 0C40.5967 0 49.4768 5.53068 54.2942 13.7427L56.2861 17.1383H43.6536L42.9898 16.4038C39.88 12.963 35.4083 10.8073 30.4496 10.8073C21.0943 10.8073 13.4815 18.4853 13.4815 27.9167C13.4815 37.3478 21.0963 45.0261 30.4496 45.0261C36.7044 45.0261 40.3171 42.5777 44.6391 38.6951H56.2861L54.2942 42.0906C49.4768 50.3027 40.5967 55.8333 30.4517 55.8333C15.1825 55.8333 2.76562 43.3131 2.76562 27.9167ZM45.5928 43.1952C41.7169 47.1011 36.3597 49.5262 30.4496 49.5262C18.6315 49.5262 9.01855 39.8332 9.01855 27.9167C9.01855 16.0003 18.6292 6.30717 30.4496 6.30717C36.3575 6.30717 41.7165 8.7322 45.5928 12.6382H48.033C43.7684 7.65411 37.4659 4.50009 30.4517 4.50009C17.6493 4.50009 7.22855 15.0057 7.22855 27.9167C7.22855 40.8277 17.6473 51.3332 30.4517 51.3332C37.4659 51.3332 43.7684 48.1792 48.033 43.1952H45.5928Z" fill="url(#paint0_linear)"/>
<path d="M68.6974 14.8904H60.1523V15.2004L71.1724 27.9167L60.1523 40.635V40.9451H68.6974L79.9991 27.9167L68.6974 14.8904Z" fill="#774BFF"/>
<path d="M3.02756 35.1084C4.20589 35.1084 4.94773 35.6851 5.38423 36.3659L4.37792 36.9166C4.11344 36.5112 3.62748 36.1946 3.02971 36.1946C1.99759 36.1946 1.24501 36.9947 1.24501 38.0788C1.24501 39.1628 1.99544 39.9629 3.02971 39.9629C3.55007 39.9629 4.01022 39.7482 4.25965 39.5249V38.8268H2.73942V37.7774H5.45304V39.9716C4.87248 40.6264 4.06183 41.0556 3.02971 41.0556C1.36542 41.0556 2.53618e-06 39.8848 2.53618e-06 38.0788C-0.00214771 36.2619 1.36326 35.1084 3.02756 35.1084Z" fill="#D8E1F7"/>
<path d="M8.51486 38.8868H7.62681V40.9444H6.41406V35.2031H9.07607C10.263 35.2031 10.9876 35.9858 10.9876 37.0526C10.9876 38.0673 10.3555 38.6093 9.74049 38.7567L11.0199 40.9422H9.62869L8.51486 38.8868ZM8.89975 36.2525H7.62896V37.8353H8.89975C9.38571 37.8353 9.75341 37.5252 9.75341 37.0439C9.75341 36.5626 9.38571 36.2525 8.89975 36.2525Z" fill="#D8E1F7"/>
<path d="M14.6004 35.1084C16.3249 35.1084 17.5784 36.3486 17.5784 38.0766C17.5784 39.8046 16.3227 41.0448 14.6004 41.0448C12.8845 41.0448 11.6309 39.8046 11.6309 38.0766C11.6309 36.3486 12.8845 35.1084 14.6004 35.1084ZM14.6004 36.1925C13.551 36.1925 12.8758 37.0012 12.8758 38.0766C12.8758 39.1433 13.551 39.9607 14.6004 39.9607C15.6497 39.9607 16.3335 39.1433 16.3335 38.0766C16.3335 37.0034 15.6518 36.1925 14.6004 36.1925Z" fill="#D8E1F7"/>
<path d="M18.4316 35.2031H19.6616V38.6115C19.6616 39.4115 20.0959 39.9622 20.984 39.9622C21.8548 39.9622 22.2892 39.4115 22.2892 38.6115V35.2031H23.5191V38.6462C23.5191 40.075 22.7085 41.0463 20.984 41.0463C19.2423 41.0463 18.4316 40.0663 18.4316 38.6548V35.2031Z" fill="#D8E1F7"/>
<path d="M24.6467 35.2031H27.3087C28.5472 35.2031 29.2203 36.0465 29.2203 37.0526C29.2203 38.0499 28.5365 38.8846 27.3087 38.8846H25.8573V40.9422H24.6445V35.2031H24.6467ZM27.1474 36.2525H25.8594V37.8353H27.1474C27.6248 37.8353 27.9839 37.5252 27.9839 37.0439C27.9839 36.5712 27.6248 36.2525 27.1474 36.2525Z" fill="#D8E1F7"/>
<path d="M7.10199 24.8856H2.66818V26.6635H6.22253V28.8555H2.66818V32.8254H0.109375V22.6914H2.66818H7.10199V24.8856Z" fill="white"/>
<path d="M16.0428 32.8254H13.469L11.8778 28.9986H10.2436V32.8254H7.8418V22.6914H8.80941H10.2458H12.6347C13.1938 22.6914 13.7141 22.8323 14.1979 23.1142C14.6817 23.3961 15.0623 23.7798 15.3419 24.2677C15.6214 24.7555 15.7612 25.2802 15.7612 25.8439C15.7612 26.3881 15.6343 26.8933 15.3763 27.3551C15.1204 27.8191 14.7742 28.1985 14.3377 28.4956L16.0428 32.8254ZM13.2153 25.1154C13.0346 24.9138 12.8132 24.8054 12.5465 24.7858V24.7707H12.5186H12.4476H12.3917H10.2458H10.1899V26.9215H10.2458H12.3788H12.4648H12.5207H12.5487C12.8132 26.8933 13.0368 26.7762 13.2174 26.5702C13.398 26.3643 13.4884 26.1193 13.4884 25.8309C13.4841 25.5534 13.3937 25.3149 13.2153 25.1154Z" fill="white"/>
<path d="M23.6189 30.6334V32.8254H19.3549H16.7832V22.6914H19.3549H23.492V24.8834H19.3549V26.6613H22.8383V28.8533H19.3549V30.6312H23.6189V30.6334Z" fill="white"/>
<path d="M30.1728 22.6936H32.7316V32.8276H30.1728L27.2162 27.3963V32.8276H24.6445V22.6936H27.2162L30.1728 28.1248V22.6936Z" fill="white"/>
<path d="M38.1447 22.6285C38.6565 22.6805 39.1618 22.8041 39.6585 22.9949C40.1552 23.1857 40.6218 23.4784 41.0583 23.8687C41.5894 24.3565 41.998 24.9332 42.2882 25.6032C42.5764 26.2731 42.7226 26.9648 42.7226 27.6803C42.7226 28.5107 42.5334 29.2955 42.1549 30.0305C41.7571 30.8132 41.2432 31.4095 40.6132 31.8149C39.9832 32.2204 39.3016 32.4914 38.5662 32.6258C37.8308 32.7603 36.9857 32.8275 36.0289 32.8275L34.8634 32.8123C34.6162 32.8036 34.2463 32.7971 33.7539 32.7971V22.5504H36.3127C37.0223 22.5482 37.633 22.5764 38.1447 22.6285ZM40.2627 27.6803C40.2627 27.2206 40.1487 26.7913 39.9208 26.3902C39.6929 25.9891 39.3854 25.6639 38.9962 25.4145C38.607 25.1652 38.1813 25.0373 37.7168 25.0286H36.3105V30.3167C37.0029 30.3167 37.5921 30.2755 38.0802 30.1953C38.5683 30.1151 39.007 29.9243 39.394 29.6294C39.7832 29.3324 40.0477 28.8879 40.1896 28.296C40.2391 28.1247 40.2627 27.9188 40.2627 27.6803Z" fill="white"/>
<path d="M50.2987 30.6334V32.8254H46.0326H43.4609V22.6914H46.0326H50.1697V24.8834H46.0326V26.6613H49.516V28.8533H46.0326V30.6312H50.2987V30.6334Z" fill="white"/>
<path d="M60.146 32.8254H57.1743L55.5831 30.1889L54.0048 32.8254H51.0332L54.1038 27.7085L51.0913 22.6914H54.0629L55.5831 25.2282L57.1034 22.6914H60.0879L57.0754 27.7085L60.146 32.8254Z" fill="white"/>
<defs>
<linearGradient id="paint0_linear" x1="2.76487" y1="27.9165" x2="56.2863" y2="27.9165" gradientUnits="userSpaceOnUse">
<stop stop-color="#6359FC" stop-opacity="0"/>
<stop offset="1" stop-color="#A15FFC"/>
</linearGradient>
</defs>
</svg>
